<?xml version="1.0" standalone="no"?><svg xmlns="http://www.w3.org/2000/svg" viewBox="0 0 1440 320"><path fill="#ffffff" fill-opacity="1" d="M0,224L26.7,229.3C53.3,235,107,245,160,234.7C213.3,224,267,192,320,154.7C373.3,117,427,75,480,90.7C533.3,107,587,181,640,181.3C693.3,181,747,107,800,90.7C853.3,75,907,117,960,122.7C1013.3,128,1067,96,1120,106.7C1173.3,117,1227,171,1280,170.7C1333.3,171,1387,117,1413,90.7L1440,64L1440,320L1413.3,320C1386.7,320,1333,320,1280,320C1226.7,320,1173,320,1120,320C1066.7,320,1013,320,960,320C906.7,320,853,320,800,320C746.7,320,693,320,640,320C586.7,320,533,320,480,320C426.7,320,373,320,320,320C266.7,320,213,320,160,320C106.7,320,53,320,27,320L0,320Z"></path></svg>